<?xml version="1.0" standalone="no"?>
<!DOCTYPE svg PUBLIC "-//W3C//DTD SVG 20010904//EN"
 "http://www.w3.org/TR/2001/REC-SVG-20010904/DTD/svg10.dtd">
<svg version="1.0" xmlns="http://www.w3.org/2000/svg"
 width="160.000000pt" height="160.000000pt" viewBox="0 0 160.000000 160.000000"
 preserveAspectRatio="xMidYMid meet">
<metadata>
Created by potrace 1.11, written by Peter Selinger 2001-2013
</metadata>
<g transform="translate(0.000000,160.000000) scale(0.100000,-0.100000)"
fill="#000000" stroke="none">
<path d="M0 800 l0 -800 800 0 800 0 0 800 0 800 -800 0 -800 0 0 -800z m936
611 c104 -27 189 -76 270 -156 182 -179 224 -449 105 -672 -42 -79 -121 -167
-188 -209 l-52 -34 14 -41 c8 -22 17 -68 21 -103 5 -51 3 -71 -16 -114 -12
-29 -26 -52 -31 -52 -12 0 -12 1 12 55 36 82 15 198 -57 316 -65 105 -54 212
26 251 55 27 221 85 264 92 l39 7 -34 35 c-46 48 -128 85 -299 135 -121 35
-160 43 -235 43 -106 1 -179 -18 -251 -66 -44 -30 -52 -41 -80 -118 -18 -47
-44 -116 -59 -155 -16 -41 -30 -104 -34 -151 -7 -67 -17 -101 -59 -194 -40
-88 -100 -195 -139 -249 -2 -2 -6 -1 -9 2 -4 4 12 35 35 70 64 99 141 277 148
342 5 52 3 63 -36 138 -120 237 -82 484 104 673 143 145 351 205 541 155z
m-26 -590 c0 -5 -12 -19 -26 -30 -36 -28 -102 -28 -138 0 -32 25 -27 38 6 15
32 -23 103 -21 126 3 19 21 32 26 32 12z"/>
</g>
</svg>
